<svg viewBox="0 0 110 110" fill="none" xmlns="http://www.w3.org/2000/svg">
<path d="M20.5076 54.6868C26.7998 54.6868 31.9007 49.586 31.9007 43.2937C31.9007 37.0015 26.7998 31.9006 20.5076 31.9006C14.2153 31.9006 9.11447 37.0015 9.11447 43.2937C9.11447 49.586 14.2153 54.6868 20.5076 54.6868Z" fill="#1E1E1E"/>
<path d="M41.0152 36.458C47.3074 36.458 52.4083 31.3571 52.4083 25.0649C52.4083 18.7726 47.3074 13.6718 41.0152 13.6718C34.7229 13.6718 29.6221 18.7726 29.6221 25.0649C29.6221 31.3571 34.7229 36.458 41.0152 36.458Z" fill="#1E1E1E"/>
<path d="M68.3586 36.458C74.6508 36.458 79.7517 31.3571 79.7517 25.0649C79.7517 18.7726 74.6508 13.6718 68.3586 13.6718C62.0664 13.6718 56.9655 18.7726 56.9655 25.0649C56.9655 31.3571 62.0664 36.458 68.3586 36.458Z" fill="#1E1E1E"/>
<path d="M88.8662 54.6868C95.1584 54.6868 100.259 49.586 100.259 43.2937C100.259 37.0015 95.1584 31.9006 88.8662 31.9006C82.5739 31.9006 77.4731 37.0015 77.4731 43.2937C77.4731 49.586 82.5739 54.6868 88.8662 54.6868Z" fill="#1E1E1E"/>
<path d="M79.0225 67.7206C75.0577 63.0723 71.7309 59.1075 67.7206 54.4591C65.6242 51.9982 62.9355 49.5373 59.7454 48.4435C59.2441 48.2612 58.7428 48.1245 58.2415 48.0334C57.1022 47.8511 55.8717 47.8511 54.6869 47.8511C53.502 47.8511 52.2715 47.8511 51.0866 48.0789C50.5854 48.1701 50.0841 48.3068 49.5828 48.4891C46.3927 49.5828 43.7495 52.0437 41.6076 54.5046C37.6428 59.153 34.316 63.1178 30.3056 67.7662C24.3357 73.7362 16.9985 80.3442 18.3657 89.5954C19.6873 94.2438 23.0141 98.8466 28.984 100.168C32.3108 100.852 42.9292 98.163 54.2311 98.163H55.0514C66.3534 98.163 76.9718 100.806 80.2986 100.168C86.2685 98.8466 89.5953 94.1982 90.9169 89.5954C92.3297 80.2986 84.9925 73.6906 79.0225 67.7206Z" fill="#1E1E1E"/>
</svg>
