<svg viewBox="0 0 110 104" fill="none" xmlns="http://www.w3.org/2000/svg">
<path d="M78.0383 51.9701C92.3821 51.9701 104.023 40.3288 104.023 25.9851C104.023 11.6413 92.3821 0 78.0383 0C63.6946 0 52.0533 11.6413 52.0533 25.9851C52.0533 40.3288 63.6946 51.9701 78.0383 51.9701ZM106.362 81.0734C104.335 78.9946 101.789 77.9552 98.8264 77.9552H62.4473L51.6375 74.1613L53.3525 69.2762L62.4473 72.7582H76.9989C78.8179 72.7582 80.273 72.0306 81.4684 70.8353C82.6637 69.6399 83.2353 68.1848 83.2353 66.5737C83.2353 63.7673 81.8841 61.8444 79.1817 60.7531L41.3994 46.7731H31.2652V93.5462L67.6443 103.94L109.376 88.3492C109.428 85.5948 108.389 83.1522 106.362 81.0734ZM20.8712 46.7731H0V103.94H20.8712V46.7731Z" fill="#1E1E1E"/>
</svg>
