<svg viewBox="0 0 110 101" fill="none" xmlns="http://www.w3.org/2000/svg">
<path d="M58.8196 6.19708C64.3037 2.2485 70.6653 0.274207 77.8495 0.274207C81.7981 0.274207 86.1306 1.31619 90.847 3.50985C95.5633 5.64867 99.2925 8.17137 102.035 11.078C107.683 18.0977 110.041 26.269 109.219 35.5921C108.341 44.9151 105.27 52.209 99.9506 57.3641L58.326 98.9888C57.284 100.031 55.9678 100.524 54.4323 100.524C52.8967 100.524 51.6353 100.031 50.5934 98.9888C50.0863 98.4895 49.6881 97.8907 49.4238 97.23C49.1596 96.5693 49.0349 95.8611 49.0578 95.1499C49.0578 93.6143 49.5514 92.2981 50.5934 91.2561L75.7656 66.0839C77.1366 64.8774 77.1366 63.6161 75.7656 62.245C74.3945 60.874 73.1332 60.874 71.9267 62.245L46.7545 87.4172C46.2469 87.9285 45.6388 88.3289 44.9686 88.5932C44.2984 88.8575 43.5806 88.98 42.8607 88.9528C41.3252 88.9528 40.0638 88.4592 39.0218 87.4172C38.5148 86.918 38.1166 86.3192 37.8523 85.6585C37.588 84.9978 37.4634 84.2895 37.4862 83.5783C37.4862 82.0428 37.9798 80.7266 39.0218 79.6846L64.194 54.5124C65.6747 53.1413 65.6747 51.7703 64.194 50.3993C62.9327 49.0282 61.7262 49.0282 60.3551 50.3993L35.1829 75.8457C34.6696 76.3491 34.0605 76.7443 33.3917 77.0081C32.7228 77.2719 32.0079 77.3988 31.2892 77.3813C29.7536 77.3813 28.4374 76.8877 27.2857 75.8457C26.1889 74.8037 25.6405 73.5424 25.6405 72.0068C25.6405 70.4712 26.2438 69.1002 27.4503 67.8937L52.6773 42.6666C54.0484 41.2956 54.0484 40.0342 52.6773 38.8277C51.3063 37.6212 49.9901 37.6212 48.7836 38.8277L23.3372 64.1096C22.1307 65.2065 20.8693 65.8097 19.4983 65.8097C17.9627 65.8097 16.6465 65.2613 15.6594 64.1096C14.6174 63.0128 14.069 61.6966 14.069 60.161C14.069 58.6255 14.6174 57.3641 15.6594 56.3221C32.4408 39.431 42.8059 29.2305 46.7545 25.4464L66.278 44.7506C68.4168 46.7797 70.8847 47.8217 73.901 47.8217C77.7399 47.8217 80.7561 46.2862 83.0046 43.215C84.5402 40.9665 85.0886 38.4987 84.6499 35.7566C84.2111 33.0145 83.0595 30.7112 81.1949 28.7918L58.8196 6.19708ZM70.1169 40.9117L46.7545 17.4944L7.92672 56.3221C3.32004 51.6606 0.687654 44.5312 0.084398 34.8243C-0.518858 25.1722 2.11353 16.7815 7.92672 9.76178C14.4529 3.29049 22.2403 0 31.2892 0C40.3928 0 48.1255 3.29049 54.4323 9.76178L77.8495 33.1791C78.8915 34.2211 79.3851 35.4824 79.3851 37.018C79.3851 38.5535 78.8915 39.8697 77.8495 40.9117C76.8076 41.8989 75.5462 42.4473 73.901 42.4473C72.4202 42.4473 71.1589 41.8989 70.1169 40.9117Z" fill="#1E1E1E"/>
</svg>
