<?xml version="1.0" encoding="utf-8"?>
<svg xmlns="http://www.w3.org/2000/svg" viewBox="279 33 29 28" >
    <path
            d="M 293.443 50.446 C 293.211 50.446 292.981 50.461 292.751 50.492 L 287.006 40.515 C 288.473 38.115 287.048 34.993 284.274 34.529 C 282.51 34.237 280.77 35.164 280.028 36.791 C 279.285 38.418 279.721 40.341 281.093 41.488 C 281.761 42.045 282.593 42.367 283.461 42.404 L 289.311 52.55 C 287.006 55.743 289.021 60.234 292.939 60.634 C 293.1 60.651 293.262 60.66 293.424 60.661 C 295.34 60.67 297.099 59.606 297.979 57.905 C 298.861 56.203 298.719 54.152 297.611 52.588 L 303.481 42.41 C 305.267 42.333 306.78 41.069 307.173 39.325 C 307.567 37.582 306.747 35.79 305.17 34.949 C 303.593 34.109 301.649 34.43 300.426 35.733 C 299.203 37.037 299.002 38.998 299.936 40.523 L 294.182 50.499 C 293.939 50.461 293.693 50.442 293.446 50.441 L 293.443 50.446 Z"
            fill="currentColor"
    />
</svg>
