<svg viewBox="0 0 28 28" fill="none" xmlns="http://www.w3.org/2000/svg">
<path d="M22.2251 5.72833C21.1553 4.64812 19.8813 3.79163 18.4772 3.20876C17.0731 2.62588 15.567 2.3283 14.0467 2.33333C7.67672 2.33333 2.48506 7.525 2.48506 13.895C2.48506 15.9367 3.02172 17.92 4.02506 19.67L2.39172 25.6667L8.51672 24.0567C10.2084 24.9783 12.1101 25.4683 14.0467 25.4683C20.4167 25.4683 25.6084 20.2767 25.6084 13.9067C25.6084 10.815 24.4067 7.91 22.2251 5.72833ZM14.0467 23.5083C12.3201 23.5083 10.6284 23.0417 9.14672 22.1667L8.79672 21.9567L5.15672 22.9133L6.12506 19.3667L5.89172 19.005C4.9322 17.4732 4.4228 15.7025 4.42172 13.895C4.42172 8.59833 8.73839 4.28167 14.0351 4.28167C16.6017 4.28167 19.0167 5.285 20.8251 7.105C21.7206 7.99617 22.4303 9.0563 22.913 10.2239C23.3956 11.3915 23.6416 12.6433 23.6367 13.9067C23.6601 19.2033 19.3434 23.5083 14.0467 23.5083ZM19.3201 16.3217C19.0284 16.1817 17.6051 15.4817 17.3484 15.3767C17.0801 15.2833 16.8934 15.2367 16.6951 15.5167C16.4967 15.8083 15.9484 16.4617 15.7851 16.6483C15.6217 16.8467 15.4467 16.87 15.1551 16.7183C14.8634 16.5783 13.9301 16.2633 12.8334 15.2833C11.9701 14.5133 11.3984 13.5683 11.2234 13.2767C11.0601 12.985 11.2001 12.8333 11.3517 12.6817C11.4801 12.5533 11.6434 12.3433 11.7834 12.18C11.9234 12.0167 11.9817 11.8883 12.0751 11.7017C12.1684 11.5033 12.1217 11.34 12.0517 11.2C11.9817 11.06 11.3984 9.63667 11.1651 9.05333C10.9317 8.49333 10.6867 8.56333 10.5117 8.55167H9.95172C9.75339 8.55167 9.45006 8.62167 9.18172 8.91333C8.92506 9.205 8.17839 9.905 8.17839 11.3283C8.17839 12.7517 9.21672 14.1283 9.35672 14.315C9.49672 14.5133 11.3984 17.43 14.2917 18.6783C14.9801 18.9817 15.5167 19.1567 15.9367 19.285C16.6251 19.5067 17.2551 19.4717 17.7567 19.4017C18.3167 19.32 19.4717 18.7017 19.7051 18.025C19.9501 17.3483 19.9501 16.7767 19.8684 16.6483C19.7867 16.52 19.6117 16.4617 19.3201 16.3217Z" fill="currentColor"/>
</svg>
